<svg width="1200" height="630" viewBox="0 0 1200 630" fill="none" xmlns="http://www.w3.org/2000/svg">
  <defs>
    <linearGradient id="bg" x1="96" y1="72" x2="1104" y2="558" gradientUnits="userSpaceOnUse">
      <stop stop-color="#E7DDE8"/>
      <stop offset="1" stop-color="#D7D6E5"/>
    </linearGradient>
    <radialGradient id="glowA" cx="0" cy="0" r="1" gradientUnits="userSpaceOnUse" gradientTransform="translate(240 140) rotate(35) scale(280 220)">
      <stop stop-color="#ffffff" stop-opacity="0.92"/>
      <stop offset="1" stop-color="#ffffff" stop-opacity="0"/>
    </radialGradient>
    <radialGradient id="glowB" cx="0" cy="0" r="1" gradientUnits="userSpaceOnUse" gradientTransform="translate(980 480) rotate(-10) scale(320 240)">
      <stop stop-color="#ffffff" stop-opacity="0.58"/>
      <stop offset="1" stop-color="#ffffff" stop-opacity="0"/>
    </radialGradient>
    <filter id="blur" x="-20%" y="-20%" width="140%" height="140%">
      <feGaussianBlur stdDeviation="24"/>
    </filter>
  </defs>
  <rect width="1200" height="630" rx="52" fill="url(#bg)"/>
  <g filter="url(#blur)">
    <circle cx="220" cy="156" r="164" fill="url(#glowA)"/>
    <circle cx="976" cy="470" r="196" fill="url(#glowB)"/>
  </g>
  <rect x="70" y="70" width="1060" height="490" rx="42" fill="rgba(255,255,255,0.28)" stroke="rgba(255,255,255,0.58)"/>
  <rect x="116" y="112" width="152" height="40" rx="20" fill="rgba(255,255,255,0.74)"/>
  <text x="150" y="138" fill="#7E6E88" font-family="'Noto Sans KR', sans-serif" font-size="14" letter-spacing="0.28em">RESULT</text>
  <text x="116" y="286" fill="#312936" font-family="'Cormorant Garamond', serif" font-size="72" font-weight="600">Center Line</text>
  <text x="116" y="338" fill="#665D72" font-family="'Noto Sans KR', sans-serif" font-size="22">A steady anchor in still water</text>

  
  <circle cx="954" cy="250" r="54" fill="#F9F6FB" stroke="#7E6E88" stroke-width="10"/>
  <path d="M954 304V402" stroke="#7E6E88" stroke-width="16" stroke-linecap="round"/>
  <path d="M900 362C906 394 930 414 954 414C978 414 1002 394 1008 362" stroke="#7E6E88" stroke-width="16" stroke-linecap="round"/>
  <path d="M928 338H980" stroke="#A394AD" stroke-width="14" stroke-linecap="round"/>
  <path d="M826 454C870 434 914 426 954 426C996 426 1040 434 1082 454" stroke="rgba(255,255,255,0.66)" stroke-width="18" stroke-linecap="round"/>

</svg>
