<svg width="1200" height="630" viewBox="0 0 1200 630" fill="none" xmlns="http://www.w3.org/2000/svg">
  <defs>
    <linearGradient id="bg" x1="96" y1="72" x2="1104" y2="558" gradientUnits="userSpaceOnUse">
      <stop stop-color="#E4DDF0"/>
      <stop offset="1" stop-color="#D0DDE3"/>
    </linearGradient>
    <radialGradient id="glowA" cx="0" cy="0" r="1" gradientUnits="userSpaceOnUse" gradientTransform="translate(240 140) rotate(35) scale(280 220)">
      <stop stop-color="#ffffff" stop-opacity="0.92"/>
      <stop offset="1" stop-color="#ffffff" stop-opacity="0"/>
    </radialGradient>
    <radialGradient id="glowB" cx="0" cy="0" r="1" gradientUnits="userSpaceOnUse" gradientTransform="translate(980 480) rotate(-10) scale(320 240)">
      <stop stop-color="#ffffff" stop-opacity="0.58"/>
      <stop offset="1" stop-color="#ffffff" stop-opacity="0"/>
    </radialGradient>
    <filter id="blur" x="-20%" y="-20%" width="140%" height="140%">
      <feGaussianBlur stdDeviation="24"/>
    </filter>
  </defs>
  <rect width="1200" height="630" rx="52" fill="url(#bg)"/>
  <g filter="url(#blur)">
    <circle cx="220" cy="156" r="164" fill="url(#glowA)"/>
    <circle cx="976" cy="470" r="196" fill="url(#glowB)"/>
  </g>
  <rect x="70" y="70" width="1060" height="490" rx="42" fill="rgba(255,255,255,0.28)" stroke="rgba(255,255,255,0.58)"/>
  <rect x="116" y="112" width="152" height="40" rx="20" fill="rgba(255,255,255,0.74)"/>
  <text x="150" y="138" fill="#717A96" font-family="'Noto Sans KR', sans-serif" font-size="14" letter-spacing="0.28em">RESULT</text>
  <text x="116" y="286" fill="#2D3441" font-family="'Cormorant Garamond', serif" font-size="72" font-weight="600">Gentle Current</text>
  <text x="116" y="338" fill="#5F6880" font-family="'Noto Sans KR', sans-serif" font-size="22">Two waves meeting without colliding</text>

  
  <path d="M806 270C846 236 898 220 952 220C1008 220 1060 236 1098 270" stroke="#717A96" stroke-width="18" stroke-linecap="round"/>
  <path d="M786 344C836 304 894 286 952 286C1012 286 1070 304 1120 344" stroke="rgba(255,255,255,0.82)" stroke-width="18" stroke-linecap="round"/>
  <path d="M828 410C874 378 914 364 952 364C992 364 1034 378 1080 410" stroke="#C3CFDA" stroke-width="18" stroke-linecap="round"/>
  <circle cx="952" cy="286" r="30" fill="#F8FBFC" stroke="rgba(113,122,150,0.18)" stroke-width="8"/>

</svg>
