<svg width="1200" height="630" viewBox="0 0 1200 630" fill="none" xmlns="http://www.w3.org/2000/svg">
  <defs>
    <linearGradient id="bg" x1="96" y1="72" x2="1104" y2="558" gradientUnits="userSpaceOnUse">
      <stop stop-color="#E8D9EF"/>
      <stop offset="1" stop-color="#D7C5E0"/>
    </linearGradient>
    <radialGradient id="glowA" cx="0" cy="0" r="1" gradientUnits="userSpaceOnUse" gradientTransform="translate(240 140) rotate(35) scale(280 220)">
      <stop stop-color="#ffffff" stop-opacity="0.92"/>
      <stop offset="1" stop-color="#ffffff" stop-opacity="0"/>
    </radialGradient>
    <radialGradient id="glowB" cx="0" cy="0" r="1" gradientUnits="userSpaceOnUse" gradientTransform="translate(980 480) rotate(-10) scale(320 240)">
      <stop stop-color="#ffffff" stop-opacity="0.58"/>
      <stop offset="1" stop-color="#ffffff" stop-opacity="0"/>
    </radialGradient>
    <filter id="blur" x="-20%" y="-20%" width="140%" height="140%">
      <feGaussianBlur stdDeviation="24"/>
    </filter>
  </defs>
  <rect width="1200" height="630" rx="52" fill="url(#bg)"/>
  <g filter="url(#blur)">
    <circle cx="220" cy="156" r="164" fill="url(#glowA)"/>
    <circle cx="976" cy="470" r="196" fill="url(#glowB)"/>
  </g>
  <rect x="70" y="70" width="1060" height="490" rx="42" fill="rgba(255,255,255,0.28)" stroke="rgba(255,255,255,0.58)"/>
  <rect x="116" y="112" width="152" height="40" rx="20" fill="rgba(255,255,255,0.74)"/>
  <text x="150" y="138" fill="#85639A" font-family="'Noto Sans KR', sans-serif" font-size="14" letter-spacing="0.28em">RESULT</text>
  <text x="116" y="286" fill="#312539" font-family="'Cormorant Garamond', serif" font-size="72" font-weight="600">Soft Compass</text>
  <text x="116" y="338" fill="#6E587D" font-family="'Noto Sans KR', sans-serif" font-size="22">A gentle compass balancing heart and logic</text>

  <circle cx="956" cy="292" r="126" fill="rgba(255,255,255,0.58)"/>
  <circle cx="956" cy="292" r="94" fill="none" stroke="#85639A" stroke-width="14"/>
  <circle cx="956" cy="292" r="18" fill="#85639A"/>
  <path d="M956 196L986 292H926L956 196Z" fill="#FFF9FC"/>
  <path d="M956 388L926 292H986L956 388Z" fill="#D6C1E6"/>
  <circle cx="892" cy="292" r="16" fill="#EAD8F1"/>
  <circle cx="1020" cy="292" r="16" fill="#F4E6F7"/>

</svg>
