<svg width="1200" height="630" viewBox="0 0 1200 630" fill="none" xmlns="http://www.w3.org/2000/svg">
  <defs>
    <linearGradient id="bg" x1="96" y1="72" x2="1104" y2="558" gradientUnits="userSpaceOnUse">
      <stop stop-color="#DBDEEF"/>
      <stop offset="1" stop-color="#C8DFDD"/>
    </linearGradient>
    <radialGradient id="glowA" cx="0" cy="0" r="1" gradientUnits="userSpaceOnUse" gradientTransform="translate(240 140) rotate(35) scale(280 220)">
      <stop stop-color="#ffffff" stop-opacity="0.92"/>
      <stop offset="1" stop-color="#ffffff" stop-opacity="0"/>
    </radialGradient>
    <radialGradient id="glowB" cx="0" cy="0" r="1" gradientUnits="userSpaceOnUse" gradientTransform="translate(980 480) rotate(-10) scale(320 240)">
      <stop stop-color="#ffffff" stop-opacity="0.58"/>
      <stop offset="1" stop-color="#ffffff" stop-opacity="0"/>
    </radialGradient>
    <filter id="blur" x="-20%" y="-20%" width="140%" height="140%">
      <feGaussianBlur stdDeviation="24"/>
    </filter>
  </defs>
  <rect width="1200" height="630" rx="52" fill="url(#bg)"/>
  <g filter="url(#blur)">
    <circle cx="220" cy="156" r="164" fill="url(#glowA)"/>
    <circle cx="976" cy="470" r="196" fill="url(#glowB)"/>
  </g>
  <rect x="70" y="70" width="1060" height="490" rx="42" fill="rgba(255,255,255,0.28)" stroke="rgba(255,255,255,0.58)"/>
  <rect x="116" y="112" width="152" height="40" rx="20" fill="rgba(255,255,255,0.74)"/>
  <text x="150" y="138" fill="#66798B" font-family="'Noto Sans KR', sans-serif" font-size="14" letter-spacing="0.28em">RESULT</text>
  <text x="116" y="286" fill="#25323A" font-family="'Cormorant Garamond', serif" font-size="72" font-weight="600">Bridge Note</text>
  <text x="116" y="338" fill="#536C75" font-family="'Noto Sans KR', sans-serif" font-size="22">A bridge joining two sides with equal care</text>

  <rect x="800" y="164" width="300" height="264" rx="32" fill="rgba(255,255,255,0.42)"/>
  <path d="M830 388C874 318 916 282 954 282C993 282 1036 318 1080 388" stroke="#66798B" stroke-width="18" stroke-linecap="round"/>
  <path d="M860 388V330" stroke="#8194A4" stroke-width="12" stroke-linecap="round"/>
  <path d="M912 388V300" stroke="#8194A4" stroke-width="12" stroke-linecap="round"/>
  <path d="M996 388V300" stroke="#8194A4" stroke-width="12" stroke-linecap="round"/>
  <path d="M1048 388V330" stroke="#8194A4" stroke-width="12" stroke-linecap="round"/>
  <rect x="838" y="388" width="244" height="20" rx="10" fill="#F8FBFC"/>
  <circle cx="836" cy="392" r="30" fill="rgba(255,255,255,0.44)"/>
  <circle cx="1084" cy="392" r="30" fill="rgba(255,255,255,0.44)"/>

</svg>
