<svg width="1200" height="630" viewBox="0 0 1200 630" fill="none" xmlns="http://www.w3.org/2000/svg">
  <defs>
    <linearGradient id="bg" x1="96" y1="72" x2="1104" y2="558" gradientUnits="userSpaceOnUse">
      <stop stop-color="#F1DADB"/>
      <stop offset="1" stop-color="#D8D0E8"/>
    </linearGradient>
    <radialGradient id="glowA" cx="0" cy="0" r="1" gradientUnits="userSpaceOnUse" gradientTransform="translate(240 140) rotate(35) scale(280 220)">
      <stop stop-color="#ffffff" stop-opacity="0.92"/>
      <stop offset="1" stop-color="#ffffff" stop-opacity="0"/>
    </radialGradient>
    <radialGradient id="glowB" cx="0" cy="0" r="1" gradientUnits="userSpaceOnUse" gradientTransform="translate(980 480) rotate(-10) scale(320 240)">
      <stop stop-color="#ffffff" stop-opacity="0.58"/>
      <stop offset="1" stop-color="#ffffff" stop-opacity="0"/>
    </radialGradient>
    <filter id="blur" x="-20%" y="-20%" width="140%" height="140%">
      <feGaussianBlur stdDeviation="24"/>
    </filter>
  </defs>
  <rect width="1200" height="630" rx="52" fill="url(#bg)"/>
  <g filter="url(#blur)">
    <circle cx="220" cy="156" r="164" fill="url(#glowA)"/>
    <circle cx="976" cy="470" r="196" fill="url(#glowB)"/>
  </g>
  <rect x="70" y="70" width="1060" height="490" rx="42" fill="rgba(255,255,255,0.28)" stroke="rgba(255,255,255,0.58)"/>
  <rect x="116" y="112" width="152" height="40" rx="20" fill="rgba(255,255,255,0.74)"/>
  <text x="150" y="138" fill="#8B6A86" font-family="'Noto Sans KR', sans-serif" font-size="14" letter-spacing="0.28em">RESULT</text>
  <text x="116" y="286" fill="#342833" font-family="'Cormorant Garamond', serif" font-size="72" font-weight="600">Still Harbor</text>
  <text x="116" y="338" fill="#715A6C" font-family="'Noto Sans KR', sans-serif" font-size="22">A lighthouse holding the line through a quiet dusk</text>

  <rect x="806" y="168" width="286" height="256" rx="30" fill="rgba(255,255,255,0.38)"/>
  <path d="M830 414C872 376 922 356 970 356C1023 356 1068 378 1090 414" fill="#F8EFF2"/>
  <rect x="932" y="224" width="48" height="142" rx="18" fill="#FFF8F9"/>
  <rect x="920" y="202" width="72" height="34" rx="16" fill="#CDAFC3"/>
  <rect x="942" y="182" width="28" height="26" rx="10" fill="#8B6A86"/>
  <path d="M992 220L1064 196" stroke="rgba(255,255,255,0.92)" stroke-width="18" stroke-linecap="round"/>
  <path d="M992 228L1068 246" stroke="rgba(255,255,255,0.54)" stroke-width="14" stroke-linecap="round"/>

</svg>
