<svg width="1200" height="630" viewBox="0 0 1200 630" fill="none" xmlns="http://www.w3.org/2000/svg">
  <defs>
    <linearGradient id="bg" x1="120" y1="80" x2="1080" y2="550" gradientUnits="userSpaceOnUse">
      <stop stop-color="#f7d8df"/>
      <stop offset="1" stop-color="#d7bfef"/>
    </linearGradient>
    <radialGradient id="orbA" cx="0" cy="0" r="1" gradientUnits="userSpaceOnUse" gradientTransform="translate(240 170) rotate(48) scale(260 240)">
      <stop stop-color="#ffffff" stop-opacity="0.98"/>
      <stop offset="1" stop-color="#ffffff" stop-opacity="0"/>
    </radialGradient>
    <radialGradient id="orbB" cx="0" cy="0" r="1" gradientUnits="userSpaceOnUse" gradientTransform="translate(950 470) rotate(20) scale(300 240)">
      <stop stop-color="#f3d7df" stop-opacity="0.92"/>
      <stop offset="1" stop-color="#f3d7df" stop-opacity="0"/>
    </radialGradient>
    <filter id="blur" x="-20%" y="-20%" width="140%" height="140%">
      <feGaussianBlur stdDeviation="22"/>
    </filter>
  </defs>
  <rect width="1200" height="630" rx="48" fill="url(#bg)"/>
  <g filter="url(#blur)">
    <circle cx="220" cy="170" r="170" fill="url(#orbA)"/>
    <circle cx="950" cy="470" r="190" fill="url(#orbB)"/>
  </g>
  <rect x="72" y="72" width="1056" height="486" rx="40" fill="rgba(255,255,255,0.24)" stroke="rgba(255,255,255,0.58)"/>
  <rect x="120" y="118" width="150" height="38" rx="19" fill="rgba(255,255,255,0.7)"/>
  <text x="154" y="143" fill="#6A5164" font-family="'Noto Sans KR', sans-serif" font-size="14" letter-spacing="0.32em">RESULT</text>
  <text x="120" y="282" fill="#342634" font-family="'Cormorant Garamond', serif" font-size="74" font-weight="600">Velvet Ember</text>
  <text x="120" y="338" fill="#5E4C5E" font-family="'Noto Sans KR', sans-serif" font-size="22">Between feeling and judgment</text>
  <path d="M838 172C897 120 992 118 1058 156C1118 191 1149 255 1128 315C1108 374 1041 423 956 422C866 421 799 366 783 297C770 242 790 208 838 172Z" fill="rgba(255,255,255,0.42)"/>
  <path d="M885 221C923 190 987 184 1036 211C1083 237 1107 284 1093 328C1078 373 1024 405 960 401C892 398 841 357 830 306C821 269 834 244 885 221Z" fill="rgba(255,255,255,0.55)"/>
  <circle cx="971" cy="291" r="67" fill="rgba(255,255,255,0.75)"/>
  <circle cx="971" cy="291" r="44" fill="rgba(110,86,111,0.14)"/>
</svg>