<svg width="1200" height="630" viewBox="0 0 1200 630" fill="none" xmlns="http://www.w3.org/2000/svg">
  <defs>
    <linearGradient id="bg" x1="96" y1="72" x2="1104" y2="558" gradientUnits="userSpaceOnUse">
      <stop stop-color="#F2DDE3"/>
      <stop offset="1" stop-color="#D7CBE9"/>
    </linearGradient>
    <radialGradient id="glowA" cx="0" cy="0" r="1" gradientUnits="userSpaceOnUse" gradientTransform="translate(240 140) rotate(35) scale(280 220)">
      <stop stop-color="#ffffff" stop-opacity="0.92"/>
      <stop offset="1" stop-color="#ffffff" stop-opacity="0"/>
    </radialGradient>
    <radialGradient id="glowB" cx="0" cy="0" r="1" gradientUnits="userSpaceOnUse" gradientTransform="translate(980 480) rotate(-10) scale(320 240)">
      <stop stop-color="#ffffff" stop-opacity="0.58"/>
      <stop offset="1" stop-color="#ffffff" stop-opacity="0"/>
    </radialGradient>
    <filter id="blur" x="-20%" y="-20%" width="140%" height="140%">
      <feGaussianBlur stdDeviation="24"/>
    </filter>
  </defs>
  <rect width="1200" height="630" rx="52" fill="url(#bg)"/>
  <g filter="url(#blur)">
    <circle cx="220" cy="156" r="164" fill="url(#glowA)"/>
    <circle cx="976" cy="470" r="196" fill="url(#glowB)"/>
  </g>
  <rect x="70" y="70" width="1060" height="490" rx="42" fill="rgba(255,255,255,0.28)" stroke="rgba(255,255,255,0.58)"/>
  <rect x="116" y="112" width="152" height="40" rx="20" fill="rgba(255,255,255,0.74)"/>
  <text x="150" y="138" fill="#8C6A7E" font-family="'Noto Sans KR', sans-serif" font-size="14" letter-spacing="0.28em">RESULT</text>
  <text x="116" y="286" fill="#33262F" font-family="'Cormorant Garamond', serif" font-size="72" font-weight="600">Quiet Shelter</text>
  <text x="116" y="338" fill="#6C5867" font-family="'Noto Sans KR', sans-serif" font-size="22">A canopy and light held open for someone</text>

  
  <rect x="824" y="188" width="280" height="220" rx="34" fill="rgba(255,255,255,0.34)"/>
  <path d="M860 266C902 206 1002 206 1044 266" stroke="#8C6A7E" stroke-width="20" stroke-linecap="round"/>
  <path d="M842 272C904 230 1000 230 1062 272L1028 342H876L842 272Z" fill="#FFF7F9"/>
  <path d="M952 268V392" stroke="#A88497" stroke-width="14" stroke-linecap="round"/>
  <circle cx="918" cy="394" r="22" fill="rgba(255,255,255,0.6)"/>
  <circle cx="986" cy="394" r="22" fill="rgba(255,255,255,0.6)"/>

</svg>
