<svg width="1200" height="630" viewBox="0 0 1200 630" fill="none" xmlns="http://www.w3.org/2000/svg">
  <defs>
    <linearGradient id="bg" x1="96" y1="72" x2="1104" y2="558" gradientUnits="userSpaceOnUse">
      <stop stop-color="#F7DDD7"/>
      <stop offset="1" stop-color="#E7BED5"/>
    </linearGradient>
    <radialGradient id="glowA" cx="0" cy="0" r="1" gradientUnits="userSpaceOnUse" gradientTransform="translate(240 140) rotate(35) scale(280 220)">
      <stop stop-color="#ffffff" stop-opacity="0.92"/>
      <stop offset="1" stop-color="#ffffff" stop-opacity="0"/>
    </radialGradient>
    <radialGradient id="glowB" cx="0" cy="0" r="1" gradientUnits="userSpaceOnUse" gradientTransform="translate(980 480) rotate(-10) scale(320 240)">
      <stop stop-color="#ffffff" stop-opacity="0.58"/>
      <stop offset="1" stop-color="#ffffff" stop-opacity="0"/>
    </radialGradient>
    <filter id="blur" x="-20%" y="-20%" width="140%" height="140%">
      <feGaussianBlur stdDeviation="24"/>
    </filter>
  </defs>
  <rect width="1200" height="630" rx="52" fill="url(#bg)"/>
  <g filter="url(#blur)">
    <circle cx="220" cy="156" r="164" fill="url(#glowA)"/>
    <circle cx="976" cy="470" r="196" fill="url(#glowB)"/>
  </g>
  <rect x="70" y="70" width="1060" height="490" rx="42" fill="rgba(255,255,255,0.28)" stroke="rgba(255,255,255,0.58)"/>
  <rect x="116" y="112" width="152" height="40" rx="20" fill="rgba(255,255,255,0.74)"/>
  <text x="150" y="138" fill="#9A6B77" font-family="'Noto Sans KR', sans-serif" font-size="14" letter-spacing="0.28em">RESULT</text>
  <text x="116" y="286" fill="#35252C" font-family="'Cormorant Garamond', serif" font-size="72" font-weight="600">Rose Hush</text>
  <text x="116" y="338" fill="#72545F" font-family="'Noto Sans KR', sans-serif" font-size="22">A glowing table lamp softening the whole room</text>

  <rect x="826" y="174" width="254" height="234" rx="30" fill="rgba(255,255,255,0.28)"/>
  <ellipse cx="954" cy="257" rx="96" ry="74" fill="#F4C9D5"/>
  <path d="M900 236C919 200 991 200 1010 236L1044 302H866L900 236Z" fill="#FFF5F7"/>
  <rect x="944" y="302" width="20" height="76" rx="10" fill="#B57D8B"/>
  <rect x="898" y="378" width="112" height="18" rx="9" fill="#E4B0C0"/>
  <circle cx="878" cy="428" r="26" fill="rgba(255,255,255,0.55)"/>
  <circle cx="1032" cy="428" r="26" fill="rgba(255,255,255,0.55)"/>
  <circle cx="954" cy="430" r="30" fill="rgba(255,255,255,0.72)"/>

</svg>
