<svg xmlns="http://www.w3.org/2000/svg" width="1200" height="900" viewBox="0 0 1200 900" fill="none">
<defs>
  <linearGradient id="paper" x1="84" y1="74" x2="1118" y2="826" gradientUnits="userSpaceOnUse">
    <stop stop-color="#FFFDFD"/>
    <stop offset="1" stop-color="#F6F1F5"/>
  </linearGradient>
  <linearGradient id="plumLine" x1="280" y1="210" x2="924" y2="696" gradientUnits="userSpaceOnUse">
    <stop stop-color="#7A5E79"/>
    <stop offset="1" stop-color="#2E3A55"/>
  </linearGradient>
  <filter id="shadow" x="-20%" y="-20%" width="140%" height="140%">
    <feDropShadow dx="0" dy="18" stdDeviation="24" flood-color="rgba(72,54,86,0.12)"/>
  </filter>
</defs>
<rect width="1200" height="900" rx="76" fill="url(#paper)"/>
<rect x="56" y="56" width="1088" height="788" rx="52" fill="white" stroke="rgba(91,65,88,0.08)"/>
<rect x="102" y="102" width="996" height="696" rx="40" fill="rgba(248,243,247,0.96)" stroke="rgba(91,65,88,0.07)"/>

<rect x="132" y="132" width="936" height="636" rx="34" fill="url(#hero)"/>
<rect x="164" y="164" width="188" height="42" rx="21" fill="rgba(255,255,255,0.82)"/>
<path d="M186 185H330" stroke="rgba(91,65,88,0.18)" stroke-width="2" stroke-linecap="round" stroke-dasharray="6 8"/>
<defs><linearGradient id="hero" x1="144" y1="148" x2="1056" y2="752" gradientUnits="userSpaceOnUse"><stop stop-color="#F6EAEE"/><stop offset="1" stop-color="#E9F0F6"/></linearGradient></defs>

<g filter="url(#shadow)">
  <path d="M760 254C850 254 924 332 924 426C924 548 830 640 760 676C690 640 596 548 596 426C596 332 670 254 760 254Z" fill="rgba(255,255,255,0.78)" stroke="url(#plumLine)" stroke-width="18"/>
  <circle cx="760" cy="446" r="78" fill="#F4DCE7" stroke="rgba(91,65,88,0.16)" stroke-width="8"/>
  <path d="M682 560C706 520 734 500 760 500C786 500 814 520 838 560" stroke="url(#plumLine)" stroke-width="18" stroke-linecap="round"/>
  <path d="M660 362C688 318 724 292 760 292C796 292 832 318 860 362" stroke="rgba(91,65,88,0.18)" stroke-width="12" stroke-linecap="round"/>
</g>

</svg>
