<svg xmlns="http://www.w3.org/2000/svg" width="640" height="640" viewBox="0 0 640 640" fill="none">
  <defs>
    <linearGradient id="bg" x1="80" y1="72" x2="560" y2="584" gradientUnits="userSpaceOnUse">
      <stop stop-color="#3b3150"/>
      <stop offset="1" stop-color="#120f18"/>
    </linearGradient>
    <radialGradient id="mist" cx="0" cy="0" r="1" gradientUnits="userSpaceOnUse" gradientTransform="translate(180 148) rotate(45) scale(360)">
      <stop stop-color="#c8b6ef" stop-opacity="0.42"/>
      <stop offset="1" stop-color="#FFFFFF" stop-opacity="0"/>
    </radialGradient>
    <linearGradient id="stroke" x1="180" y1="176" x2="480" y2="470" gradientUnits="userSpaceOnUse">
      <stop stop-color="#f7f2ff"/>
      <stop offset="1" stop-color="#c8b6ef"/>
    </linearGradient>
  </defs>
  <rect width="640" height="640" rx="88" fill="url(#bg)"/>
  <rect x="38" y="38" width="564" height="564" rx="60" fill="url(#mist)" stroke="rgba(255,255,255,0.16)"/>
  <circle cx="320" cy="320" r="170" fill="rgba(255,255,255,0.05)" stroke="rgba(255,255,255,0.14)" stroke-width="2"/>
  <circle cx="320" cy="320" r="118" fill="rgba(255,255,255,0.03)" stroke="rgba(255,255,255,0.12)" stroke-width="2"/>
  <g stroke="url(#stroke)" stroke-width="18" stroke-linecap="round" stroke-linejoin="round"><path d="M214 240C252 196 300 196 338 240C376 284 424 284 462 240"/><path d="M214 400C252 356 300 356 338 400C376 444 424 444 462 400"/><path d="M240 214C196 252 196 300 240 338C284 376 284 424 240 462"/><path d="M400 214C356 252 356 300 400 338C444 376 444 424 400 462"/></g>
  <circle cx="320" cy="320" r="230" stroke="rgba(255,255,255,0.08)" stroke-width="1.5" stroke-dasharray="6 12"/>
</svg>