<svg xmlns="http://www.w3.org/2000/svg" width="1200" height="900" viewBox="0 0 1200 900" fill="none">
<defs>
  <linearGradient id="paper" x1="84" y1="74" x2="1118" y2="826" gradientUnits="userSpaceOnUse">
    <stop stop-color="#FFFDFD"/>
    <stop offset="1" stop-color="#F6F1F5"/>
  </linearGradient>
  <linearGradient id="plumLine" x1="280" y1="210" x2="924" y2="696" gradientUnits="userSpaceOnUse">
    <stop stop-color="#7A5E79"/>
    <stop offset="1" stop-color="#2E3A55"/>
  </linearGradient>
  <filter id="shadow" x="-20%" y="-20%" width="140%" height="140%">
    <feDropShadow dx="0" dy="18" stdDeviation="24" flood-color="rgba(72,54,86,0.12)"/>
  </filter>
</defs>
<rect width="1200" height="900" rx="76" fill="url(#paper)"/>
<rect x="56" y="56" width="1088" height="788" rx="52" fill="white" stroke="rgba(91,65,88,0.08)"/>
<rect x="102" y="102" width="996" height="696" rx="40" fill="rgba(248,243,247,0.96)" stroke="rgba(91,65,88,0.07)"/>

<rect x="132" y="132" width="936" height="636" rx="34" fill="url(#hero)"/>
<rect x="164" y="164" width="188" height="42" rx="21" fill="rgba(255,255,255,0.82)"/>
<path d="M186 185H330" stroke="rgba(91,65,88,0.18)" stroke-width="2" stroke-linecap="round" stroke-dasharray="6 8"/>
<defs><linearGradient id="hero" x1="144" y1="148" x2="1056" y2="752" gradientUnits="userSpaceOnUse"><stop stop-color="#F7E5EC"/><stop offset="1" stop-color="#E5EBF7"/></linearGradient></defs>

<g filter="url(#shadow)">
  <circle cx="760" cy="450" r="188" fill="rgba(255,255,255,0.72)"/>
  <circle cx="760" cy="450" r="132" fill="rgba(255,255,255,0.55)" stroke="rgba(91,65,88,0.14)" stroke-width="6"/>
  <path d="M760 282V566" stroke="url(#plumLine)" stroke-width="22" stroke-linecap="round"/>
  <path d="M646 506C690 570 730 606 760 606C790 606 830 570 874 506" stroke="url(#plumLine)" stroke-width="22" stroke-linecap="round"/>
  <path d="M702 308C702 258 726 230 760 230C794 230 818 258 818 308C818 352 786 380 760 404C734 380 702 352 702 308Z" fill="#F2D6E2" stroke="url(#plumLine)" stroke-width="16" stroke-linejoin="round"/>
  <circle cx="760" cy="450" r="230" stroke="rgba(91,65,88,0.16)" stroke-width="10"/>
</g>

</svg>