<svg xmlns="http://www.w3.org/2000/svg" width="640" height="640" viewBox="0 0 640 640" fill="none">
  <defs>
    <linearGradient id="bg" x1="80" y1="72" x2="560" y2="584" gradientUnits="userSpaceOnUse">
      <stop stop-color="#24374d"/>
      <stop offset="1" stop-color="#120f18"/>
    </linearGradient>
    <radialGradient id="mist" cx="0" cy="0" r="1" gradientUnits="userSpaceOnUse" gradientTransform="translate(180 148) rotate(45) scale(360)">
      <stop stop-color="#9ab8eb" stop-opacity="0.42"/>
      <stop offset="1" stop-color="#FFFFFF" stop-opacity="0"/>
    </radialGradient>
    <linearGradient id="stroke" x1="180" y1="176" x2="480" y2="470" gradientUnits="userSpaceOnUse">
      <stop stop-color="#edf5ff"/>
      <stop offset="1" stop-color="#9ab8eb"/>
    </linearGradient>
  </defs>
  <rect width="640" height="640" rx="88" fill="url(#bg)"/>
  <rect x="38" y="38" width="564" height="564" rx="60" fill="url(#mist)" stroke="rgba(255,255,255,0.16)"/>
  <circle cx="320" cy="320" r="170" fill="rgba(255,255,255,0.05)" stroke="rgba(255,255,255,0.14)" stroke-width="2"/>
  <circle cx="320" cy="320" r="118" fill="rgba(255,255,255,0.03)" stroke="rgba(255,255,255,0.12)" stroke-width="2"/>
  <g stroke="url(#stroke)" stroke-width="18" stroke-linecap="round" stroke-linejoin="round"><path d="M206 404L264 318L328 348L402 232L434 268"/><circle cx="206" cy="404" r="22"/><circle cx="264" cy="318" r="18"/><circle cx="328" cy="348" r="18"/><circle cx="402" cy="232" r="22"/><path d="M188 212C226 174 284 174 322 212"/><path d="M156 180C214 122 306 122 364 180"/></g>
  <circle cx="320" cy="320" r="230" stroke="rgba(255,255,255,0.08)" stroke-width="1.5" stroke-dasharray="6 12"/>
</svg>