<svg xmlns="http://www.w3.org/2000/svg" width="640" height="640" viewBox="0 0 640 640" fill="none">
  <defs>
    <linearGradient id="bg" x1="80" y1="72" x2="560" y2="584" gradientUnits="userSpaceOnUse">
      <stop stop-color="#5c2140"/>
      <stop offset="1" stop-color="#120f18"/>
    </linearGradient>
    <radialGradient id="mist" cx="0" cy="0" r="1" gradientUnits="userSpaceOnUse" gradientTransform="translate(180 148) rotate(45) scale(360)">
      <stop stop-color="#f2b4cc" stop-opacity="0.42"/>
      <stop offset="1" stop-color="#FFFFFF" stop-opacity="0"/>
    </radialGradient>
    <linearGradient id="stroke" x1="180" y1="176" x2="480" y2="470" gradientUnits="userSpaceOnUse">
      <stop stop-color="#fde6ef"/>
      <stop offset="1" stop-color="#f2b4cc"/>
    </linearGradient>
  </defs>
  <rect width="640" height="640" rx="88" fill="url(#bg)"/>
  <rect x="38" y="38" width="564" height="564" rx="60" fill="url(#mist)" stroke="rgba(255,255,255,0.16)"/>
  <circle cx="320" cy="320" r="170" fill="rgba(255,255,255,0.05)" stroke="rgba(255,255,255,0.14)" stroke-width="2"/>
  <circle cx="320" cy="320" r="118" fill="rgba(255,255,255,0.03)" stroke="rgba(255,255,255,0.12)" stroke-width="2"/>
  <g stroke="url(#stroke)" stroke-width="18" stroke-linecap="round" stroke-linejoin="round"><path d="M320 214V374"/><path d="M248 294C248 343 287 382 320 382C353 382 392 343 392 294"/><path d="M286 214C286 188 302 172 320 172C338 172 354 188 354 214C354 240 336 252 320 266C304 252 286 240 286 214Z"/><path d="M274 430C292 398 348 398 366 430"/></g>
  <circle cx="320" cy="320" r="230" stroke="rgba(255,255,255,0.08)" stroke-width="1.5" stroke-dasharray="6 12"/>
</svg>