<svg xmlns="http://www.w3.org/2000/svg" width="1200" height="900" viewBox="0 0 1200 900" fill="none">
  <defs>
    <linearGradient id="bg" x1="88" y1="82" x2="1112" y2="818" gradientUnits="userSpaceOnUse">
      <stop stop-color="#5C274C"/>
      <stop offset="0.56" stop-color="#20365B"/>
      <stop offset="1" stop-color="#0D1220"/>
    </linearGradient>
    <radialGradient id="glowA" cx="0" cy="0" r="1" gradientUnits="userSpaceOnUse" gradientTransform="translate(278 212) rotate(28) scale(320 250)">
      <stop stop-color="#F4B6D0" stop-opacity="0.42"/>
      <stop offset="1" stop-color="#FFFFFF" stop-opacity="0"/>
    </radialGradient>
    <radialGradient id="glowB" cx="0" cy="0" r="1" gradientUnits="userSpaceOnUse" gradientTransform="translate(948 668) rotate(-16) scale(360 280)">
      <stop stop-color="#90B7FF" stop-opacity="0.34"/>
      <stop offset="1" stop-color="#FFFFFF" stop-opacity="0"/>
    </radialGradient>
    <linearGradient id="panel" x1="176" y1="152" x2="1034" y2="758" gradientUnits="userSpaceOnUse">
      <stop stop-color="rgba(255,255,255,0.24)"/>
      <stop offset="1" stop-color="rgba(255,255,255,0.08)"/>
    </linearGradient>
    <linearGradient id="lineWarm" x1="232" y1="184" x2="968" y2="742" gradientUnits="userSpaceOnUse">
      <stop stop-color="#FFF4FA"/>
      <stop offset="1" stop-color="#F4B8D0"/>
    </linearGradient>
    <linearGradient id="lineCool" x1="240" y1="166" x2="998" y2="728" gradientUnits="userSpaceOnUse">
      <stop stop-color="#F0F8FF"/>
      <stop offset="1" stop-color="#8FB8FF"/>
    </linearGradient>
    <filter id="blur" x="-20%" y="-20%" width="140%" height="140%">
      <feGaussianBlur stdDeviation="32"/>
    </filter>
  </defs>
  <rect width="1200" height="900" rx="76" fill="url(#bg)"/>
  <g filter="url(#blur)">
    <ellipse cx="284" cy="212" rx="220" ry="164" fill="url(#glowA)"/>
    <ellipse cx="944" cy="672" rx="252" ry="196" fill="url(#glowB)"/>
  </g>
  <rect x="58" y="58" width="1084" height="784" rx="54" fill="url(#panel)" stroke="rgba(255,255,255,0.24)"/>
  <rect x="112" y="104" width="976" height="692" rx="42" fill="rgba(10,14,26,0.14)" stroke="rgba(255,255,255,0.14)"/>
  <circle cx="600" cy="450" r="296" stroke="rgba(255,255,255,0.08)" stroke-width="2" stroke-dasharray="7 15"/>
  <circle cx="600" cy="450" r="224" stroke="rgba(255,255,255,0.05)" stroke-width="2"/>

<path d="M292 514C372 398 466 352 560 352C654 352 748 398 828 514" stroke="url(#lineWarm)" stroke-width="18" stroke-linecap="round"/>
<path d="M372 590C442 506 516 472 600 472C684 472 758 506 828 590" stroke="url(#lineCool)" stroke-width="18" stroke-linecap="round"/>
<path d="M452 430C492 478 542 506 600 506C658 506 708 478 748 430" stroke="rgba(255,255,255,0.24)" stroke-width="12" stroke-linecap="round"/>
<rect x="258" y="320" width="180" height="136" rx="40" fill="rgba(255,255,255,0.08)" stroke="rgba(255,255,255,0.16)" stroke-width="10"/>
<rect x="762" y="320" width="180" height="136" rx="40" fill="rgba(255,255,255,0.08)" stroke="rgba(255,255,255,0.16)" stroke-width="10"/>
<path d="M344 456L448 540" stroke="rgba(255,255,255,0.16)" stroke-width="10" stroke-linecap="round"/>
<path d="M856 456L752 540" stroke="rgba(255,255,255,0.16)" stroke-width="10" stroke-linecap="round"/>
<circle cx="600" cy="428" r="24" fill="#FFF3F8"/>
</svg>
