<svg xmlns="http://www.w3.org/2000/svg" width="1200" height="900" viewBox="0 0 1200 900" fill="none">
<defs>
  <linearGradient id="paper" x1="84" y1="74" x2="1118" y2="826" gradientUnits="userSpaceOnUse">
    <stop stop-color="#FFFDFD"/>
    <stop offset="1" stop-color="#F6F1F5"/>
  </linearGradient>
  <linearGradient id="plumLine" x1="280" y1="210" x2="924" y2="696" gradientUnits="userSpaceOnUse">
    <stop stop-color="#7A5E79"/>
    <stop offset="1" stop-color="#2E3A55"/>
  </linearGradient>
  <filter id="shadow" x="-20%" y="-20%" width="140%" height="140%">
    <feDropShadow dx="0" dy="18" stdDeviation="24" flood-color="rgba(72,54,86,0.12)"/>
  </filter>
</defs>
<rect width="1200" height="900" rx="76" fill="url(#paper)"/>
<rect x="56" y="56" width="1088" height="788" rx="52" fill="white" stroke="rgba(91,65,88,0.08)"/>
<rect x="102" y="102" width="996" height="696" rx="40" fill="rgba(248,243,247,0.96)" stroke="rgba(91,65,88,0.07)"/>

<rect x="132" y="132" width="936" height="636" rx="34" fill="url(#hero)"/>
<rect x="164" y="164" width="188" height="42" rx="21" fill="rgba(255,255,255,0.82)"/>
<path d="M186 185H330" stroke="rgba(91,65,88,0.18)" stroke-width="2" stroke-linecap="round" stroke-dasharray="6 8"/>
<defs><linearGradient id="hero" x1="144" y1="148" x2="1056" y2="752" gradientUnits="userSpaceOnUse"><stop stop-color="#EEF0FB"/><stop offset="1" stop-color="#E2ECFA"/></linearGradient></defs>

<g filter="url(#shadow)">
  <circle cx="774" cy="450" r="184" fill="rgba(255,255,255,0.72)"/>
  <path d="M820 254C722 266 650 344 650 450C650 556 722 634 820 646V254Z" fill="#F5E8F1" stroke="url(#plumLine)" stroke-width="18" stroke-linejoin="round"/>
  <path d="M774 304C706 324 662 378 662 450C662 522 706 576 774 596C736 542 736 358 774 304Z" fill="#E5EBF7"/>
  <path d="M860 336C924 364 964 406 964 450C964 494 924 536 860 564" stroke="url(#plumLine)" stroke-width="20" stroke-linecap="round"/>
  <path d="M900 286C984 326 1040 384 1040 450C1040 516 984 574 900 614" stroke="rgba(91,65,88,0.2)" stroke-width="12" stroke-linecap="round"/>
  <circle cx="858" cy="450" r="18" fill="#D7E2F4"/>
</g>

</svg>
