<svg xmlns="http://www.w3.org/2000/svg" width="640" height="640" viewBox="0 0 640 640" fill="none">
  <defs>
    <linearGradient id="bg" x1="80" y1="72" x2="560" y2="584" gradientUnits="userSpaceOnUse">
      <stop stop-color="#384458"/>
      <stop offset="1" stop-color="#120f18"/>
    </linearGradient>
    <radialGradient id="mist" cx="0" cy="0" r="1" gradientUnits="userSpaceOnUse" gradientTransform="translate(180 148) rotate(45) scale(360)">
      <stop stop-color="#b1c2de" stop-opacity="0.42"/>
      <stop offset="1" stop-color="#FFFFFF" stop-opacity="0"/>
    </radialGradient>
    <linearGradient id="stroke" x1="180" y1="176" x2="480" y2="470" gradientUnits="userSpaceOnUse">
      <stop stop-color="#f4f8ff"/>
      <stop offset="1" stop-color="#b1c2de"/>
    </linearGradient>
  </defs>
  <rect width="640" height="640" rx="88" fill="url(#bg)"/>
  <rect x="38" y="38" width="564" height="564" rx="60" fill="url(#mist)" stroke="rgba(255,255,255,0.16)"/>
  <circle cx="320" cy="320" r="170" fill="rgba(255,255,255,0.05)" stroke="rgba(255,255,255,0.14)" stroke-width="2"/>
  <circle cx="320" cy="320" r="118" fill="rgba(255,255,255,0.03)" stroke="rgba(255,255,255,0.12)" stroke-width="2"/>
  <g stroke="url(#stroke)" stroke-width="18" stroke-linecap="round" stroke-linejoin="round"><path d="M194 392H446"/><path d="M226 392V332C226 280 268 238 320 238C372 238 414 280 414 332V392"/><path d="M252 392C252 348 283 316 320 316C357 316 388 348 388 392"/><path d="M320 188V238"/></g>
  <circle cx="320" cy="320" r="230" stroke="rgba(255,255,255,0.08)" stroke-width="1.5" stroke-dasharray="6 12"/>
</svg>