<svg xmlns="http://www.w3.org/2000/svg" width="1200" height="900" viewBox="0 0 1200 900" fill="none">
<defs>
  <linearGradient id="paper" x1="84" y1="74" x2="1118" y2="826" gradientUnits="userSpaceOnUse">
    <stop stop-color="#FFFDFD"/>
    <stop offset="1" stop-color="#F6F1F5"/>
  </linearGradient>
  <linearGradient id="plumLine" x1="280" y1="210" x2="924" y2="696" gradientUnits="userSpaceOnUse">
    <stop stop-color="#7A5E79"/>
    <stop offset="1" stop-color="#2E3A55"/>
  </linearGradient>
  <filter id="shadow" x="-20%" y="-20%" width="140%" height="140%">
    <feDropShadow dx="0" dy="18" stdDeviation="24" flood-color="rgba(72,54,86,0.12)"/>
  </filter>
</defs>
<rect width="1200" height="900" rx="76" fill="url(#paper)"/>
<rect x="56" y="56" width="1088" height="788" rx="52" fill="white" stroke="rgba(91,65,88,0.08)"/>
<rect x="102" y="102" width="996" height="696" rx="40" fill="rgba(248,243,247,0.96)" stroke="rgba(91,65,88,0.07)"/>

<rect x="132" y="132" width="936" height="636" rx="34" fill="url(#hero)"/>
<rect x="164" y="164" width="188" height="42" rx="21" fill="rgba(255,255,255,0.82)"/>
<path d="M186 185H330" stroke="rgba(91,65,88,0.18)" stroke-width="2" stroke-linecap="round" stroke-dasharray="6 8"/>
<defs><linearGradient id="hero" x1="144" y1="148" x2="1056" y2="752" gradientUnits="userSpaceOnUse"><stop stop-color="#F0EDF8"/><stop offset="1" stop-color="#E8EEF8"/></linearGradient></defs>

<g filter="url(#shadow)">
  <rect x="614" y="250" width="306" height="306" rx="40" fill="rgba(255,255,255,0.76)" stroke="url(#plumLine)" stroke-width="18"/>
  <rect x="674" y="310" width="186" height="186" rx="28" fill="#F8F3F7" stroke="rgba(91,65,88,0.18)" stroke-width="12"/>
  <path d="M764 314V492" stroke="rgba(91,65,88,0.18)" stroke-width="10" stroke-linecap="round"/>
  <path d="M618 402H916" stroke="rgba(91,65,88,0.14)" stroke-width="10" stroke-linecap="round"/>
  <path d="M546 402C546 274 646 174 774 174C902 174 1002 274 1002 402" stroke="rgba(91,65,88,0.18)" stroke-width="12" stroke-linecap="round"/>
  <circle cx="764" cy="402" r="18" fill="#F0D8E4"/>
</g>

</svg>
