<svg width="1200" height="630" viewBox="0 0 1200 630" fill="none" xmlns="http://www.w3.org/2000/svg">
  <defs>
    <linearGradient id="bg" x1="96" y1="72" x2="1104" y2="558" gradientUnits="userSpaceOnUse">
      <stop stop-color="#D6DDEA"/>
      <stop offset="1" stop-color="#A9BAD0"/>
    </linearGradient>
    <radialGradient id="glowA" cx="0" cy="0" r="1" gradientUnits="userSpaceOnUse" gradientTransform="translate(240 140) rotate(35) scale(280 220)">
      <stop stop-color="#ffffff" stop-opacity="0.92"/>
      <stop offset="1" stop-color="#ffffff" stop-opacity="0"/>
    </radialGradient>
    <radialGradient id="glowB" cx="0" cy="0" r="1" gradientUnits="userSpaceOnUse" gradientTransform="translate(980 480) rotate(-10) scale(320 240)">
      <stop stop-color="#ffffff" stop-opacity="0.58"/>
      <stop offset="1" stop-color="#ffffff" stop-opacity="0"/>
    </radialGradient>
    <filter id="blur" x="-20%" y="-20%" width="140%" height="140%">
      <feGaussianBlur stdDeviation="24"/>
    </filter>
  </defs>
  <rect width="1200" height="630" rx="52" fill="url(#bg)"/>
  <g filter="url(#blur)">
    <circle cx="220" cy="156" r="164" fill="url(#glowA)"/>
    <circle cx="976" cy="470" r="196" fill="url(#glowB)"/>
  </g>
  <rect x="70" y="70" width="1060" height="490" rx="42" fill="rgba(255,255,255,0.28)" stroke="rgba(255,255,255,0.58)"/>
  <rect x="116" y="112" width="152" height="40" rx="20" fill="rgba(255,255,255,0.74)"/>
  <text x="150" y="138" fill="#60738C" font-family="'Noto Sans KR', sans-serif" font-size="14" letter-spacing="0.28em">RESULT</text>
  <text x="116" y="286" fill="#243042" font-family="'Cormorant Garamond', serif" font-size="72" font-weight="600">Quiet Pivot</text>
  <text x="116" y="338" fill="#53667E" font-family="'Noto Sans KR', sans-serif" font-size="22">A neat desk that brings a noisy moment back into focus</text>

  <rect x="800" y="176" width="290" height="250" rx="28" fill="rgba(255,255,255,0.44)"/>
  <rect x="832" y="206" width="210" height="136" rx="20" fill="#F6F9FF"/>
  <rect x="854" y="232" width="118" height="14" rx="7" fill="#A9BAD0"/>
  <rect x="854" y="260" width="162" height="14" rx="7" fill="#C1CDDF"/>
  <rect x="854" y="288" width="138" height="14" rx="7" fill="#D2DBE8"/>
  <circle cx="1012" cy="384" r="42" fill="#EEF3FA" stroke="rgba(96,115,140,0.18)" stroke-width="8"/>
  <path d="M972 384H1052" stroke="#7E90A8" stroke-width="10" stroke-linecap="round"/>
  <path d="M842 384H928" stroke="#60738C" stroke-width="12" stroke-linecap="round"/>

</svg>
