<svg width="1200" height="630" viewBox="0 0 1200 630" fill="none" xmlns="http://www.w3.org/2000/svg">
  <defs>
    <linearGradient id="bg" x1="96" y1="72" x2="1104" y2="558" gradientUnits="userSpaceOnUse">
      <stop stop-color="#D8DBEE"/>
      <stop offset="1" stop-color="#C0CCDD"/>
    </linearGradient>
    <radialGradient id="glowA" cx="0" cy="0" r="1" gradientUnits="userSpaceOnUse" gradientTransform="translate(240 140) rotate(35) scale(280 220)">
      <stop stop-color="#ffffff" stop-opacity="0.92"/>
      <stop offset="1" stop-color="#ffffff" stop-opacity="0"/>
    </radialGradient>
    <radialGradient id="glowB" cx="0" cy="0" r="1" gradientUnits="userSpaceOnUse" gradientTransform="translate(980 480) rotate(-10) scale(320 240)">
      <stop stop-color="#ffffff" stop-opacity="0.58"/>
      <stop offset="1" stop-color="#ffffff" stop-opacity="0"/>
    </radialGradient>
    <filter id="blur" x="-20%" y="-20%" width="140%" height="140%">
      <feGaussianBlur stdDeviation="24"/>
    </filter>
  </defs>
  <rect width="1200" height="630" rx="52" fill="url(#bg)"/>
  <g filter="url(#blur)">
    <circle cx="220" cy="156" r="164" fill="url(#glowA)"/>
    <circle cx="976" cy="470" r="196" fill="url(#glowB)"/>
  </g>
  <rect x="70" y="70" width="1060" height="490" rx="42" fill="rgba(255,255,255,0.28)" stroke="rgba(255,255,255,0.58)"/>
  <rect x="116" y="112" width="152" height="40" rx="20" fill="rgba(255,255,255,0.74)"/>
  <text x="150" y="138" fill="#5F6786" font-family="'Noto Sans KR', sans-serif" font-size="14" letter-spacing="0.28em">RESULT</text>
  <text x="116" y="286" fill="#253046" font-family="'Cormorant Garamond', serif" font-size="72" font-weight="600">Frame Setter</text>
  <text x="116" y="338" fill="#55607B" font-family="'Noto Sans KR', sans-serif" font-size="22">A ruler, frame, and marks that define what matters</text>

  <rect x="820" y="164" width="252" height="252" rx="30" fill="rgba(255,255,255,0.46)"/>
  <rect x="860" y="204" width="172" height="172" rx="28" fill="none" stroke="#5F6786" stroke-width="18"/>
  <path d="M860 182V226" stroke="#7D87A6" stroke-width="16" stroke-linecap="round"/>
  <path d="M1032 182V226" stroke="#7D87A6" stroke-width="16" stroke-linecap="round"/>
  <path d="M1034 292H1080" stroke="#7D87A6" stroke-width="16" stroke-linecap="round"/>
  <path d="M814 292H860" stroke="#7D87A6" stroke-width="16" stroke-linecap="round"/>
  <path d="M944 376V424" stroke="#7D87A6" stroke-width="16" stroke-linecap="round"/>
  <path d="M944 164V212" stroke="#7D87A6" stroke-width="16" stroke-linecap="round"/>
  <circle cx="944" cy="292" r="28" fill="#F8FAFF" stroke="rgba(95,103,134,0.2)" stroke-width="8"/>

</svg>
