<svg width="1200" height="630" viewBox="0 0 1200 630" fill="none" xmlns="http://www.w3.org/2000/svg">
  <defs>
    <linearGradient id="bg" x1="96" y1="72" x2="1104" y2="558" gradientUnits="userSpaceOnUse">
      <stop stop-color="#D8E0E8"/>
      <stop offset="1" stop-color="#B6C5D2"/>
    </linearGradient>
    <radialGradient id="glowA" cx="0" cy="0" r="1" gradientUnits="userSpaceOnUse" gradientTransform="translate(240 140) rotate(35) scale(280 220)">
      <stop stop-color="#ffffff" stop-opacity="0.92"/>
      <stop offset="1" stop-color="#ffffff" stop-opacity="0"/>
    </radialGradient>
    <radialGradient id="glowB" cx="0" cy="0" r="1" gradientUnits="userSpaceOnUse" gradientTransform="translate(980 480) rotate(-10) scale(320 240)">
      <stop stop-color="#ffffff" stop-opacity="0.58"/>
      <stop offset="1" stop-color="#ffffff" stop-opacity="0"/>
    </radialGradient>
    <filter id="blur" x="-20%" y="-20%" width="140%" height="140%">
      <feGaussianBlur stdDeviation="24"/>
    </filter>
  </defs>
  <rect width="1200" height="630" rx="52" fill="url(#bg)"/>
  <g filter="url(#blur)">
    <circle cx="220" cy="156" r="164" fill="url(#glowA)"/>
    <circle cx="976" cy="470" r="196" fill="url(#glowB)"/>
  </g>
  <rect x="70" y="70" width="1060" height="490" rx="42" fill="rgba(255,255,255,0.28)" stroke="rgba(255,255,255,0.58)"/>
  <rect x="116" y="112" width="152" height="40" rx="20" fill="rgba(255,255,255,0.74)"/>
  <text x="150" y="138" fill="#577085" font-family="'Noto Sans KR', sans-serif" font-size="14" letter-spacing="0.28em">RESULT</text>
  <text x="116" y="286" fill="#23313C" font-family="'Cormorant Garamond', serif" font-size="72" font-weight="600">Momentum Map</text>
  <text x="116" y="338" fill="#536773" font-family="'Noto Sans KR', sans-serif" font-size="22">Arrows turning a plan into motion</text>

  
  <rect x="814" y="176" width="280" height="236" rx="32" fill="rgba(255,255,255,0.36)"/>
  <path d="M850 368L918 300L964 334L1050 238" stroke="#577085" stroke-width="18" stroke-linecap="round" stroke-linejoin="round"/>
  <path d="M1022 238H1050V266" stroke="#577085" stroke-width="18" stroke-linecap="round" stroke-linejoin="round"/>
  <rect x="850" y="224" width="72" height="72" rx="22" fill="#EEF4F8"/>
  <rect x="944" y="252" width="72" height="72" rx="22" fill="#D4DFE7"/>
  <rect x="1030" y="188" width="42" height="42" rx="14" fill="#F6FAFC"/>

</svg>
