<svg width="1200" height="630" viewBox="0 0 1200 630" fill="none" xmlns="http://www.w3.org/2000/svg">
  <defs>
    <linearGradient id="bg" x1="96" y1="72" x2="1104" y2="558" gradientUnits="userSpaceOnUse">
      <stop stop-color="#DCE2EF"/>
      <stop offset="1" stop-color="#BCC8DF"/>
    </linearGradient>
    <radialGradient id="glowA" cx="0" cy="0" r="1" gradientUnits="userSpaceOnUse" gradientTransform="translate(240 140) rotate(35) scale(280 220)">
      <stop stop-color="#ffffff" stop-opacity="0.92"/>
      <stop offset="1" stop-color="#ffffff" stop-opacity="0"/>
    </radialGradient>
    <radialGradient id="glowB" cx="0" cy="0" r="1" gradientUnits="userSpaceOnUse" gradientTransform="translate(980 480) rotate(-10) scale(320 240)">
      <stop stop-color="#ffffff" stop-opacity="0.58"/>
      <stop offset="1" stop-color="#ffffff" stop-opacity="0"/>
    </radialGradient>
    <filter id="blur" x="-20%" y="-20%" width="140%" height="140%">
      <feGaussianBlur stdDeviation="24"/>
    </filter>
  </defs>
  <rect width="1200" height="630" rx="52" fill="url(#bg)"/>
  <g filter="url(#blur)">
    <circle cx="220" cy="156" r="164" fill="url(#glowA)"/>
    <circle cx="976" cy="470" r="196" fill="url(#glowB)"/>
  </g>
  <rect x="70" y="70" width="1060" height="490" rx="42" fill="rgba(255,255,255,0.28)" stroke="rgba(255,255,255,0.58)"/>
  <rect x="116" y="112" width="152" height="40" rx="20" fill="rgba(255,255,255,0.74)"/>
  <text x="150" y="138" fill="#5B6D8D" font-family="'Noto Sans KR', sans-serif" font-size="14" letter-spacing="0.28em">RESULT</text>
  <text x="116" y="286" fill="#263246" font-family="'Cormorant Garamond', serif" font-size="72" font-weight="600">Clear Beacon</text>
  <text x="116" y="338" fill="#56657E" font-family="'Noto Sans KR', sans-serif" font-size="22">A signal tower cutting through the fog</text>

  
  <rect x="832" y="180" width="240" height="232" rx="30" fill="rgba(255,255,255,0.36)"/>
  <rect x="936" y="220" width="32" height="156" rx="12" fill="#F7FAFF"/>
  <circle cx="952" cy="204" r="28" fill="#D7E0EE" stroke="#5B6D8D" stroke-width="10"/>
  <path d="M980 204H1064" stroke="rgba(255,255,255,0.92)" stroke-width="18" stroke-linecap="round"/>
  <path d="M980 240H1042" stroke="rgba(255,255,255,0.54)" stroke-width="14" stroke-linecap="round"/>
  <path d="M924 204H840" stroke="rgba(255,255,255,0.92)" stroke-width="18" stroke-linecap="round"/>
  <path d="M924 240H862" stroke="rgba(255,255,255,0.54)" stroke-width="14" stroke-linecap="round"/>

</svg>
